<svg width="19" height="16" viewBox="0 0 19 16" fill="none" xmlns="http://www.w3.org/2000/svg">
<g id="&#240;&#159;&#166;&#134; icon &#34;heart&#34;">
<path id="Vector" d="M4.6875 0.5C3.39844 0.5 2.25 1.00294 1.38281 1.79015C0.539062 2.57737 0 3.64885 0 4.8734C0 6.07609 0.539062 7.14757 1.38281 7.95665L9.375 15.4133L17.3672 7.95665C18.2109 7.16944 18.75 6.09796 18.75 4.8734C18.75 3.67072 18.2109 2.59923 17.3672 1.79015C16.5234 1.00294 15.375 0.5 14.0625 0.5C12.7734 0.5 11.625 1.00294 10.7578 1.79015C9.91406 2.57737 9.375 3.64885 9.375 4.8734C9.375 3.67072 8.83594 2.59923 7.99219 1.79015C7.14844 1.00294 6 0.5 4.6875 0.5Z" fill="#AE1829"/>
</g>
</svg>
