<svg width="215" height="129" viewBox="0 0 215 129" fill="none" xmlns="http://www.w3.org/2000/svg">
<g filter="url(#filter0_d_104_841)">
<path d="M198.956 54.2605C216.956 44.7605 184.623 30.3167 177.456 13.4379C170.289 -3.44102 154.499 12.2944 137.456 4.76032C101.956 13.4379 119.314 7.40055 101.956 13.4379C84.5977 19.4752 72.3914 -11.4616 64.4561 4.7602C56.5207 20.982 13.0167 19.9544 18.9561 37.2602C24.8955 54.566 13.974 70.0793 30.4561 78.7605C46.9382 87.4417 70.1777 92.0741 87.9561 87.2606C105.734 82.447 150.956 84.7605 167.456 78.7605L198.956 54.2605Z" fill="#9A0F1F"/>
<path d="M44.9935 107.142C44.9935 113.531 36.6974 114.373 23.9969 114.373C11.2963 114.373 4 108.711 4 102.321C4 95.9315 18.7951 96.0544 31.4957 96.0544C43.9937 100.393 41.4941 101.839 44.9935 107.142Z" fill="#AE1829"/>
<path d="M202.823 115.558C188.823 119.558 197.323 110.067 188.823 102.058C176.123 102.058 177.994 93.5227 177.994 87.1332C177.994 80.7436 197.995 81.9561 206.494 90.6329C217.253 96.6368 202.823 115.558 202.823 115.558Z" fill="#AE1829"/>
</g>
<defs>
<filter id="filter0_d_104_841" x="0" y="0" width="214.48" height="128.504" filterUnits="userSpaceOnUse" color-interpolation-filters="sRGB">
<feFlood flood-opacity="0" result="BackgroundImageFix"/>
<feColorMatrix in="SourceAlpha" type="matrix" values="0 0 0 0 0 0 0 0 0 0 0 0 0 0 0 0 0 0 127 0" result="hardAlpha"/>
<feOffset dy="8"/>
<feGaussianBlur stdDeviation="2"/>
<feComposite in2="hardAlpha" operator="out"/>
<feColorMatrix type="matrix" values="0 0 0 0 0 0 0 0 0 0 0 0 0 0 0 0 0 0 0.25 0"/>
<feBlend mode="normal" in2="BackgroundImageFix" result="effect1_dropShadow_104_841"/>
<feBlend mode="normal" in="SourceGraphic" in2="effect1_dropShadow_104_841" result="shape"/>
</filter>
</defs>
</svg>
