<svg width="28" height="48" viewBox="0 0 28 48" fill="none" xmlns="http://www.w3.org/2000/svg">
<path d="M24.8589 24C26.7589 21.15 27.4589 17.6 26.8589 14.1L24.7089 1.7C24.5589 0.75 23.7089 0 22.7089 0H4.35894C3.35894 0 2.55894 0.7 2.35894 1.65L0.208938 14.1C-0.391062 17.6 0.308938 21.15 2.20894 24C4.45894 27.4 8.05894 29.5 12.0089 29.95V43.65C12.0089 44.2 11.6089 44.65 11.0589 44.7L5.25894 45.4C4.70894 45.45 4.30894 45.9 4.30894 46.45C4.30894 47.05 4.75894 47.5 5.35894 47.5H21.5589C22.1589 47.5 22.6089 47.05 22.6089 46.45C22.6089 45.9 22.2089 45.45 21.6589 45.4L16.0589 44.65C15.5089 44.6 15.1089 44.15 15.1089 43.6V29.9C19.1089 29.45 22.6589 27.35 24.8589 24ZM5.20894 3H21.9089L23.6089 12.8C22.2089 11.85 20.3089 11 17.8589 10.8C11.6589 10.25 10.0089 15.05 3.50894 13L5.20894 3Z" fill="#AE1829"/>
</svg>
