<svg width="62" height="59" viewBox="0 0 62 59" fill="none" xmlns="http://www.w3.org/2000/svg">
<g id="LogoJerome">
<path id="Vector" d="M47 0H15C6.71573 0 0 6.71573 0 15V43.2424C0 51.5267 6.71573 58.2424 15 58.2424H47C55.2843 58.2424 62 51.5267 62 43.2424V15C62 6.71573 55.2843 0 47 0Z" fill="#AE1829"/>
<path id="Vector_2" d="M9.79447 33.7525C9.85715 33.6937 9.84637 33.5921 9.77956 33.5379C9.6424 33.4267 9.57381 33.3155 9.57381 33.2044C9.57381 33.1324 9.6504 32.7727 9.84188 32.1611C9.91 31.8092 10.0387 31.2296 10.3088 30.3971C10.3724 30.2011 10.5496 30.0646 10.755 30.0491C11.0765 30.025 11.2951 29.7145 11.1737 29.4158C11.1416 29.3367 11.106 29.2552 11.0673 29.1752C11.029 29.1033 10.9907 28.9954 10.9907 28.8515C10.9907 28.7876 11.0149 28.6738 11.0632 28.5117C11.337 27.5928 11.5927 26.6553 12.0217 25.7979C12.0592 25.7229 12.0985 25.6495 12.1396 25.5778L12.688 24.7102C12.7995 24.5337 13.0244 24.4437 13.2281 24.4899C13.2883 24.5035 13.3185 24.508 13.3774 24.5264C13.5486 24.5798 13.6384 24.6065 13.6714 24.6065C13.7004 24.6065 13.7318 24.6019 13.7657 24.5928C14.0287 24.5216 14.3153 24.4333 14.5139 24.2468C14.5181 24.2428 14.5222 24.2387 14.5262 24.2345C14.6528 24.1019 14.5063 23.9014 14.3247 23.877C14.2067 23.8612 14.1087 23.778 14.0741 23.664L13.9912 23.3915C13.9335 23.202 13.9527 22.9965 14.0691 22.8363C14.184 22.6782 14.3578 22.4686 14.5905 22.2682C14.7054 22.1602 14.8203 22.0164 14.9351 21.8365C15.1266 21.5127 15.2798 21.3328 15.3564 21.2609C15.5782 21.0526 15.7213 20.8442 15.8292 20.6359C15.8732 20.5508 15.9284 20.4717 15.9982 20.4061C16.0298 20.3765 16.0587 20.3439 16.0849 20.3094C16.3361 19.9774 16.5511 19.7447 16.6967 19.642C16.771 19.5722 17.0616 19.4009 17.5683 19.0951C17.5964 19.0782 17.6323 19.082 17.6562 19.1044C17.6781 19.1249 17.7102 19.13 17.7373 19.1173L18.0698 18.9611C18.2134 18.8937 18.3051 18.7493 18.3051 18.5906C18.3051 18.4601 18.3674 18.3374 18.4727 18.2603L21.2539 16.2245C21.3687 16.1525 21.5985 16.0086 21.9432 15.8288L22.3182 15.5866C22.4756 15.4849 22.6486 15.4098 22.8304 15.3643C23.0287 15.3146 23.2159 15.2286 23.3869 15.1165C23.8077 14.8407 24.0616 14.7136 24.126 14.7136C24.1882 14.7136 24.2566 14.7254 24.3365 14.7491C24.5834 14.8223 24.856 14.7253 24.949 14.4851C25.0268 14.2843 25.2373 14.1681 25.4487 14.2095L25.7569 14.2698C25.8924 14.2963 26.0238 14.2078 26.05 14.0722C26.0678 13.9801 26.1359 13.9058 26.2258 13.8792C26.6383 13.7569 26.9028 13.6666 27.0747 13.6343C27.3761 13.5332 27.6775 13.4435 27.9789 13.3779C28.442 13.2771 28.9139 13.2144 29.3725 13.0947C29.9086 12.9868 30.1767 12.9508 30.2532 12.9148C30.2919 12.8967 30.3306 12.8762 30.3706 12.8523C30.666 12.6752 30.9811 12.5191 31.3255 12.5191C31.517 12.5191 31.8616 12.4112 32.4361 12.2313C32.6658 12.1594 32.8956 12.1234 33.1637 12.1234C33.3935 12.1234 33.6232 12.1234 33.8147 12.1954C34.0123 12.2418 34.2333 12.2286 34.4362 12.2237L37.1081 12.1594C37.6825 12.1594 38.2187 12.4472 38.6782 12.9508C39.0229 13.2746 39.2143 13.4545 39.2909 13.4545C39.9344 13.4545 40.5696 12.95 41.2121 12.9849C41.2358 12.9862 41.2592 12.9868 41.2823 12.9868C41.3246 12.9868 41.3617 12.9868 41.3974 12.9868C41.5245 12.9868 41.6511 12.9721 41.7748 12.9431C42.0543 12.8774 42.3462 12.8859 42.6215 12.9675L42.929 13.0587C44.574 13.4451 45.7224 13.7577 46.396 13.9968C46.6191 14.0759 46.7585 14.2909 46.7585 14.5276C46.7585 14.6922 46.6904 14.8495 46.5705 14.9622C46.4428 15.0821 46.3523 15.1671 46.299 15.2172C45.7628 15.7568 45.3799 16.0446 45.1884 16.0446C45.0352 16.0446 44.8054 15.9367 44.4608 15.7568C43.6818 15.4575 42.7719 15.1274 41.7613 14.7949C41.6028 14.7428 41.4731 14.6267 41.4049 14.4744C41.2892 14.2164 41.0044 14.067 40.7314 14.1406C40.6876 14.1523 40.6543 14.1631 40.6313 14.1739C40.4015 14.2459 40.2483 14.2819 40.21 14.2819C40.1334 14.2819 39.6739 14.138 38.7548 13.8502C38.4867 13.7423 38.2952 13.6703 38.257 13.5624C38.1928 13.3817 37.9189 13.3283 37.738 13.3917C37.4287 13.5003 37.2243 13.5624 37.1081 13.5624H34.0445C33.6634 13.5147 33.2766 13.5161 32.8994 13.5887C32.834 13.6013 32.7709 13.614 32.71 13.627C32.1881 13.7377 31.6686 13.8783 31.138 13.9337L30.5596 13.9941C30.4059 14.023 30.2604 14.0493 30.1232 14.0737C29.4961 14.1852 28.867 14.3152 28.3002 14.6056L27.6096 14.8964C27.3303 15.0141 27.0629 15.1583 26.8112 15.3272C26.5282 15.5171 26.2243 15.6737 25.9104 15.8065C24.7991 16.2764 23.9857 16.7501 23.4409 17.2549C23.1971 17.4808 22.9175 17.6699 22.6091 17.7939C22.4287 17.8664 22.2359 17.9545 22.0249 18.0608C21.8555 18.1461 21.7709 18.3293 21.7314 18.5148C21.7082 18.6236 21.6199 18.6948 21.5234 18.7502C21.2444 18.9105 20.9068 19.1766 20.488 19.5701C20.1313 19.8812 19.8086 20.2285 19.5026 20.5897C19.3033 20.825 19.1654 20.9648 19.071 21.0091C18.9179 21.081 18.803 21.153 18.6881 21.153C18.5666 21.153 18.4961 21.2784 18.5525 21.386C18.5655 21.4107 18.5732 21.4294 18.5732 21.4408C18.5732 21.469 18.3373 21.8296 17.8841 22.5399C17.6031 22.9803 17.109 23.5522 16.7501 23.9317C16.4499 24.249 16.3665 24.4423 16.1907 24.8422C16.1254 24.9907 16.0508 25.1646 15.9691 25.362L15.5096 26.4052C15.3824 26.8113 15.201 27.1978 14.99 27.5674C14.7541 27.9805 14.5954 28.3084 14.5139 28.5637C14.4373 28.7795 14.3607 29.2112 14.2075 29.8228C14.0318 30.4557 13.9233 30.8781 13.8648 31.0739C13.8414 31.1521 13.8213 31.2353 13.7703 31.299C13.7352 31.3427 13.685 31.384 13.6212 31.4227C13.345 31.5901 13.1116 31.8783 13.2774 32.1555C13.4267 32.4053 13.5075 32.7032 13.4206 32.981C13.3836 33.0994 13.365 33.1873 13.365 33.2403C13.365 33.5478 13.4341 33.8876 13.5394 34.3216C13.5507 34.368 13.5565 34.4635 13.5565 34.4635C13.5565 34.7059 13.2503 34.7934 13.0228 34.8771L11.8841 35.2956C11.6973 35.3643 11.412 35.4156 11.412 35.6146C11.412 35.786 11.5793 35.9016 11.6743 36.0443C11.8217 36.2656 11.9187 36.4395 11.9481 36.55C12.063 36.8378 12.1396 36.9817 12.1779 37.0176C12.24 37.063 12.3008 37.1083 12.3608 37.1539C12.9065 37.568 13.3052 38.143 13.5565 38.7804C13.6616 38.9778 13.7026 39.2053 13.7381 39.4629C13.7435 39.5015 13.7134 39.5358 13.6744 39.5358C13.6334 39.5358 13.6029 39.5736 13.6114 39.6137L13.7085 40.07C13.7326 40.1831 13.8199 40.2722 13.9325 40.2987C14.0104 40.317 14.0787 40.3654 14.1168 40.4358C14.2186 40.6237 14.274 40.7898 14.2829 40.934C14.2842 40.9565 14.3024 40.9748 14.325 40.9748C14.3454 40.9748 14.3627 40.99 14.3655 41.0103C14.3952 41.2271 14.424 41.3786 14.4338 41.4648C14.4375 41.4978 14.4402 41.5309 14.4461 41.5635C14.5197 41.9679 14.592 42.2367 14.6288 42.3059L15.05 43.0613C15.4713 44.1046 15.6628 44.6802 15.6628 44.86C15.6628 44.9147 15.6407 44.9589 15.5965 44.9928C15.4431 45.1106 15.2873 45.2734 15.3631 45.4514C15.4055 45.5509 15.5032 45.6149 15.6114 45.6161C15.8302 45.6185 16.0005 45.6302 16.1223 45.6875C16.4069 45.8211 16.6556 46.0166 16.8612 46.2545C16.9366 46.3418 17.0103 46.4301 17.083 46.5199C17.2897 46.7752 17.5134 47.0169 17.7656 47.2275L17.881 47.3239C18.0103 47.4318 18.1289 47.5519 18.2352 47.6825L18.3086 47.7727C18.4832 47.9872 18.6997 48.1634 18.9428 48.2953C19.0277 48.3414 19.1069 48.385 19.1806 48.4264C19.5834 48.6527 19.7567 49.1452 20.0635 49.4907C20.1178 49.5518 20.177 49.5963 20.2469 49.6387C20.3565 49.7054 20.4808 49.7714 20.6157 49.835C21.0048 50.0185 21.4031 50.1848 21.7756 50.4001L22.2112 50.6519L22.9771 50.9757L23.6665 51.2994L23.9799 51.4234C24.2549 51.5322 24.5153 51.6749 24.7551 51.8481L24.8714 51.9321C24.8851 51.942 24.8791 51.9394 24.8936 51.948C25.1558 52.1037 25.5361 52.1003 25.8338 52.0341C25.8538 52.0296 25.8735 52.0261 25.893 52.0236C25.94 52.0176 25.9871 52.0245 26.0331 52.0359C26.1864 52.0736 26.5947 52.1742 27.252 52.3378C28.126 52.5553 29.0238 52.6665 29.9244 52.6665C30.8963 52.6665 31.4238 52.6665 31.4787 52.6665C31.5147 52.6665 31.5676 52.6744 31.6254 52.694C31.7709 52.7433 31.8903 52.8506 32.0304 52.9135C32.0843 52.9377 32.1351 52.958 32.184 52.9744C32.3681 53.0363 32.6154 52.9587 32.7659 52.8359C32.8616 52.7577 32.8961 52.6833 33.0056 52.6261C33.0487 52.6035 33.0871 52.5945 33.1254 52.5945H33.3312C33.3726 52.5945 33.4138 52.5993 33.4541 52.6088C33.5153 52.6231 33.5786 52.6267 33.641 52.6192L35.3465 52.4146C35.5201 52.4146 35.8705 52.3543 36.3871 52.2336C37.0378 52.0815 37.7036 52.1988 38.3718 52.1988C38.409 52.1988 38.4503 52.195 38.4953 52.1873C39.2077 52.0657 39.8462 51.6579 40.5547 51.5153C40.9339 51.4105 41.2352 51.3057 41.4585 51.2152C41.6957 51.119 41.9566 51.0776 42.2068 51.1318C42.2796 51.1476 42.3537 51.1561 42.4275 51.1465C42.704 51.1104 43.3132 50.965 44.231 50.6879C45.0768 50.4148 45.649 50.2273 45.9475 50.1256C46.1044 50.0721 46.1826 50.0718 46.2908 49.9464C46.4097 49.8087 46.6147 49.6042 46.7794 49.5269L47.3712 49.2489C47.8308 48.9971 48.252 48.8532 48.6733 48.8532C48.94 48.8532 49.1885 48.6926 49.3034 48.452C49.3311 48.3939 49.364 48.3482 49.4009 48.3136C49.4775 48.2416 49.7455 48.1337 50.1668 47.9538C50.6263 47.702 50.9327 47.5581 50.971 47.5581C51.2735 47.5581 51.415 47.9333 51.3653 48.2317C51.2792 48.7492 51.1478 49.1603 50.971 49.4648C50.8178 49.6806 50.7412 49.9324 50.6646 50.2922C50.5915 50.5668 50.2639 50.6703 49.9858 50.7284C49.7658 50.7745 49.4635 50.8312 49.0838 50.9034C48.7088 50.9747 48.2101 51.1421 47.8475 51.2613C47.4946 51.3774 47.2627 51.3976 46.9024 51.4884C46.722 51.5338 46.4967 51.5914 46.2224 51.6592L45.2267 51.8391L44.1544 52.1269L43.197 52.2707C42.278 52.5226 41.7418 52.6665 41.5886 52.6665C41.4355 52.6665 41.2057 52.6665 40.8993 52.6665C40.7304 52.6665 40.472 52.6665 40.1242 52.6665C40.0447 52.6665 39.9802 52.7309 39.9802 52.8104C39.9802 53.0622 39.7888 53.2061 39.4441 53.2061C39.3675 53.2061 39.3292 53.2061 39.2526 53.2061C38.9846 53.2061 38.8314 53.1701 38.7931 53.1701C38.7548 53.1701 38.6782 53.1701 38.5633 53.2061L35.8061 53.7817C35.2316 53.8896 34.5423 53.9615 33.7764 53.9975L32.0531 54.0695C32.0045 54.0695 31.9588 54.0912 31.9255 54.1266C31.788 54.2724 31.6405 54.3612 31.4021 54.3932C30.7128 54.3932 30.1384 54.4292 29.6405 54.4292C29.3342 54.4292 28.8363 54.2853 28.147 54.0335C27.9938 53.9615 27.8023 53.9615 27.5726 53.9615C27.4921 53.9615 27.4117 53.9869 27.3284 54.035C27.0574 54.1916 26.7815 54.3573 26.4685 54.3573C26.0835 54.3573 25.7533 54.1281 25.4601 53.8785C25.328 53.766 25.2007 53.7097 25.0834 53.7097H25.0068C24.7004 53.7097 24.4324 53.7097 24.1643 53.7097C23.9345 53.7097 23.7813 53.7457 23.7431 53.7457C23.1686 53.7457 22.4793 53.5299 21.5985 53.0982C20.9475 52.7744 20.2199 52.4506 19.454 52.1269C18.3098 51.4551 17.4995 51.0028 17.0853 50.7994C17.0326 50.7735 16.9913 50.7293 16.9701 50.6746L16.9566 50.6396C16.9052 50.507 17.0031 50.3641 17.1453 50.3641C17.2571 50.3641 17.3477 50.2735 17.3477 50.1617V50.0763C17.3477 49.9353 17.3303 49.8139 17.2955 49.7121C17.1538 49.2978 16.6368 49.6806 16.1989 49.6806C16.1223 49.6806 15.8542 49.5007 15.3947 49.141L14.2902 48.4147C14.0074 48.2288 13.759 47.9954 13.5557 47.7249L13.4969 47.6467C13.4347 47.5638 13.3653 47.4865 13.2898 47.4155C13.2125 47.3428 13.1417 47.2635 13.0783 47.1784L12.3694 46.2271C11.2801 44.8286 10.5007 43.2362 10.0963 41.511C10.0569 41.3426 10.137 41.1698 10.2887 41.0867L10.3118 41.0741C10.4235 41.0129 10.4929 40.8956 10.4929 40.7683C10.4929 40.6503 10.4332 40.5403 10.3343 40.476L10.244 40.4172C10.0887 40.3162 10.0002 40.1427 9.97353 39.9594C9.9431 39.7506 9.88234 39.5533 9.80358 39.356C9.70173 39.0689 9.54633 38.807 9.40812 38.5356C9.39151 38.503 9.38234 38.4769 9.38234 38.4566C9.38234 38.3847 9.38234 38.1328 9.38234 37.6652L9.31945 36.8972C9.31042 36.7869 9.32488 36.6759 9.36188 36.5716C9.4245 36.3952 9.41983 36.2028 9.35937 36.0256C9.27256 35.7711 9.22916 35.588 9.22916 35.5067C9.22916 35.2835 9.28375 35.0603 9.39295 34.8489C9.49336 34.6545 9.60295 34.4623 9.65471 34.2497C9.6828 34.1343 9.71721 33.9898 9.75635 33.8191C9.76218 33.7936 9.77545 33.7704 9.79447 33.7525Z" fill="#DCBF89"/>
<path id="Vector_3" d="M17.4596 3.92313C17.4316 3.94065 17.4462 3.98286 17.479 3.97862C17.7547 3.94297 17.9089 3.88914 17.9832 3.85636C17.9936 3.85179 18.0033 3.84581 18.0122 3.83888L18.6498 3.34566L19.454 2.80605L19.8028 2.572C20.1048 2.36935 20.4306 2.15851 20.7943 2.15851C21.0713 2.15851 21.3187 2.32889 21.4239 2.5851C21.6085 3.03475 21.9005 3.70503 22.3382 4.58391C22.3804 4.66861 22.4027 4.76197 22.4027 4.85659C22.4027 4.91805 22.4027 5.16332 22.3311 5.59239C22.3073 5.73455 22.194 5.84391 22.0519 5.86818C21.9363 5.88794 21.8383 5.96467 21.7915 6.07227L21.6554 6.38463C21.5924 6.52938 21.6985 6.69128 21.8564 6.69128H21.9219C21.9356 6.69128 21.9487 6.69647 21.9586 6.70581C21.9727 6.71906 21.9929 6.72367 22.0113 6.71789L22.3834 6.6014C22.419 6.59025 22.4578 6.59915 22.485 6.62469C22.5058 6.64422 22.5176 6.67148 22.5176 6.70001V6.81564C22.5176 6.9593 22.6006 7.09001 22.7306 7.15109L22.8174 7.19182C22.9661 7.2617 23.0732 7.39762 23.1064 7.5586L23.2503 8.25706C23.2705 8.35522 23.3459 8.43271 23.4435 8.45562C23.5339 8.47686 23.6054 8.54523 23.6344 8.63345C23.7511 8.98772 23.946 9.44271 24.219 10.0186C24.2589 10.1027 24.2925 10.1896 24.3206 10.2783C24.4094 10.559 24.4975 10.8019 24.5805 11.0071C24.7379 11.3963 24.5472 11.8474 24.5472 12.2673C24.5472 12.3033 24.6238 12.4112 24.7387 12.627C24.8815 12.8686 25.0031 13.0701 25.1033 13.2315C25.1632 13.328 25.2621 13.3934 25.3741 13.4125C25.5245 13.4382 25.6475 13.5468 25.6924 13.6926C25.8119 14.0808 25.9151 14.4027 26.0033 14.6584C26.1758 15.1582 26.4891 15.656 26.7433 16.1195L26.9981 16.5842L27.4194 17.4836C27.8023 18.239 27.9938 18.7787 27.9938 18.9945C27.9938 19.135 27.9208 19.3097 27.7749 19.5856C27.7682 19.5982 27.7551 19.6061 27.7409 19.6061C27.7312 19.6061 27.7218 19.6098 27.7146 19.6165L27.6694 19.6589C27.611 19.7138 27.5921 19.7989 27.6218 19.8734L27.624 19.8789C27.6607 19.9708 27.758 20.023 27.8549 20.0028L27.952 19.9825C28.0028 19.9719 28.0557 19.9843 28.0965 20.0162C28.1828 20.0838 28.3091 20.057 28.3605 19.9603L28.4537 19.7852C28.4728 19.7493 28.5208 19.7414 28.5504 19.7692C28.5619 19.78 28.577 19.7859 28.5927 19.7859H28.6086C28.653 19.7859 28.6923 19.8146 28.7056 19.857C28.7824 20.1017 28.8418 20.3113 28.8968 20.4857C28.9312 20.5946 28.966 20.7058 29.0192 20.8068C29.1042 20.9684 29.267 21.2478 29.4967 21.6449C29.6948 21.9872 29.8557 22.3495 30.0092 22.714C30.2692 23.3315 30.6186 24.017 31.0574 24.7864C31.3255 25.2181 31.4787 25.6497 31.4787 25.9735C31.4787 26.1065 31.406 26.2531 31.2696 26.4218C31.0922 26.6413 31.0262 26.9379 31.1491 27.192L31.1848 27.2656C31.2708 27.4434 31.451 27.5564 31.6486 27.5564C31.8284 27.5564 31.9938 27.6512 32.0911 27.8024C32.1704 27.9255 32.2343 28.0144 32.2829 28.06C32.3514 28.1428 32.4124 28.2185 32.4652 28.2859C32.6393 28.5079 32.7427 28.7733 32.8188 29.045C32.8699 29.2274 32.9376 29.4047 33.0211 29.5746L33.3551 30.2545C33.5849 30.7941 33.8913 31.3337 34.3125 31.9093C34.504 32.233 34.8103 32.8806 35.1933 33.8519C35.2316 33.9598 35.3465 34.1397 35.5763 34.3555C36.2656 35.039 36.6485 35.4348 36.6485 35.5427C36.6485 35.6663 36.5761 35.807 36.4438 35.988C36.334 36.1382 36.3642 36.3512 36.5202 36.4527C36.6405 36.5309 36.7994 36.5175 36.9003 36.4155C37.0629 36.2511 37.1649 36.1281 37.2229 36.0463C37.2995 35.9384 37.3761 35.6866 37.4527 35.3268C37.6059 34.7872 37.6825 34.3915 37.7591 34.1397L38.4484 32.0892C38.7931 30.866 38.9845 30.1465 39.1377 29.9307C39.2655 29.7207 39.4199 29.4856 39.6231 29.2255C39.7051 29.1206 39.8155 29.0418 39.9395 28.9933L40.0677 28.9431C40.1595 28.9072 40.2428 28.8371 40.277 28.7446C40.287 28.7175 40.2836 28.6933 40.2763 28.6654C40.2627 28.6123 40.2342 28.5114 40.1846 28.3745C40.1523 28.2851 40.1334 28.1911 40.1334 28.096C40.1334 27.8802 40.21 27.6283 40.3249 27.3405C40.5163 26.8369 40.6695 26.4412 40.7844 26.1534L41.512 23.851C41.6269 23.4553 41.8184 23.0956 42.0099 22.6999C42.4694 21.9444 42.7375 21.4408 42.7375 21.153C42.7375 21.0955 42.7375 21.0381 42.7375 20.9785C42.7375 20.7892 42.8598 20.5715 42.9509 20.4056C42.9849 20.3437 42.9766 20.327 42.9952 20.2588L43.3885 18.8146L43.8404 17.5126C43.922 17.2777 43.9866 17.0373 44.0339 16.7931L44.0461 16.7298C44.0927 16.4892 44.1582 16.2524 44.2476 16.0243C44.3792 15.6887 44.4813 15.4518 44.5347 15.3138C44.5678 15.228 44.5896 15.132 44.6568 15.0692C44.7125 15.0171 44.7899 14.9716 44.8876 14.9298C45.123 14.8291 45.2649 14.5738 45.2649 14.3178C45.2649 14.2672 45.2649 14.1808 45.2917 14.0714C45.3146 13.9776 45.302 13.8757 45.2394 13.8022L44.901 13.4048C44.8935 13.396 44.8997 13.3825 44.9113 13.3825C44.9167 13.3825 44.9217 13.3792 44.9237 13.3742L46.2606 10.1448L46.6053 9.35338L46.7968 8.74181L46.9861 8.11115C47.1388 7.60262 47.0648 7.07834 47.0648 6.54738C47.0648 6.39308 47.1212 6.15936 47.2581 5.82351C47.2991 5.72292 47.4123 5.6729 47.516 5.70536C47.6522 5.74801 47.7924 5.64683 47.7924 5.50412C47.7924 5.44471 47.7924 5.38529 47.7493 5.26508C47.729 5.20855 47.7158 5.13796 47.7158 5.07789C47.7158 5.04277 47.72 5.0192 47.7282 4.98505L47.9358 4.12134C47.9678 3.98841 47.9839 3.85218 47.9839 3.71547V3.58834C47.9839 3.45179 47.9568 3.44573 48.0093 3.31969C48.1406 3.00479 48.4885 2.66268 48.8232 2.59646C49.1094 2.53982 49.3147 2.49306 49.4391 2.44631C49.7072 2.37436 49.9753 2.15851 50.3199 1.87072C50.6358 1.63331 51.0815 1.66568 51.3531 1.95271C51.4313 2.03538 51.4688 2.11493 51.4688 2.19449C51.4688 2.30241 51.3922 2.48228 51.239 2.69813C50.9326 3.12982 50.6646 3.70541 50.5114 4.38892C50.3577 4.9666 50.0805 5.72981 49.6601 6.65992C49.4436 7.13887 49.2474 7.62739 49.0945 8.13025L48.1597 10.8322C48.1195 10.9482 48.0556 11.0546 47.9719 11.1445C47.879 11.2441 47.8106 11.3639 47.7719 11.4945L46.903 14.4271C46.8348 14.657 46.6505 14.8313 46.5051 15.0219C46.4298 15.1208 46.4029 15.2443 46.3622 15.3618C46.3141 15.5005 46.2361 15.7122 46.1439 15.9919C46.093 16.1462 46.0569 16.3052 46.0324 16.4659C46.0059 16.6404 45.9649 16.8124 45.91 16.9802L45.8394 17.1958C45.6096 18.0592 45.4181 18.7067 45.2649 19.1384C45.0735 19.6061 44.9586 19.8939 44.9203 20.0018C44.7671 20.4694 44.6522 20.7572 44.5374 20.8651C44.5373 20.8652 44.5374 20.8651 44.5373 20.8652C44.5371 20.8654 44.4833 20.9159 44.3839 20.9943C44.2109 21.1308 44.0196 21.2638 43.9629 21.4767C43.848 22.0883 43.7714 22.4121 43.7331 22.484C43.6988 22.5485 43.6029 22.6131 43.3901 22.7554C43.3413 22.7881 43.3119 22.843 43.3119 22.9018C43.3119 22.956 43.3371 23.0069 43.3787 23.0417C43.5639 23.1965 43.6565 23.3224 43.6565 23.4193C43.6565 23.4913 43.6183 23.5632 43.5034 23.7431C43.3119 24.0669 43.0821 24.6425 42.8906 25.4699L42.4694 26.765C42.3419 27.244 42.1804 27.7134 41.9862 28.1695L41.8184 28.5637L41.3588 30.2185C40.7844 31.6215 40.4015 32.6288 40.2483 33.2403C40.1717 33.6001 40.0568 33.8159 39.9036 33.9238C39.7844 34.0078 39.642 34.0918 39.4403 34.1758C39.3291 34.2221 39.2526 34.3282 39.2526 34.4486C39.2526 34.5269 39.285 34.6018 39.3421 34.6555L39.3909 34.7013C39.4257 34.734 39.4688 34.7564 39.5155 34.7662C39.663 34.797 39.7534 34.9465 39.7117 35.0914C39.6075 35.4535 39.4011 36.1696 39.1133 37.1616C39.0786 37.281 39.0538 37.4035 39.0392 37.527L38.9845 37.9889L38.9079 38.4566L38.7548 39.3919C38.6302 39.9184 38.531 40.3498 38.4571 40.6667C38.4307 40.7797 38.3216 40.853 38.207 40.8351C38.0723 40.814 37.9506 40.9181 37.9506 41.0545V41.2844C37.9506 41.4467 37.8569 41.5947 37.7072 41.6575C37.5696 41.7153 37.3917 41.7854 37.2229 41.8382C36.603 42.1167 36.1349 42.2883 35.8585 42.378C35.7098 42.4263 35.518 42.3324 35.4236 42.2077C35.3787 42.1483 35.3738 42.1243 35.3529 42.0528L34.8486 40.3273L33.9679 38.3127C33.67 37.3969 33.4487 36.787 33.3311 36.47C33.2709 36.3079 33.1919 36.1523 33.0749 36.0251C32.9936 35.9367 32.8968 35.842 32.7844 35.7392C32.5679 35.5412 32.4772 35.1771 32.4099 34.8915C32.3797 34.7632 32.3317 34.7253 32.2778 34.6051L32.0531 34.1037C31.8492 33.6008 31.6062 33.1147 31.3264 32.6497L31.2489 32.5208L30.9042 31.8014C30.7128 31.4776 30.5979 31.2617 30.5979 31.2258C30.5979 31.1967 30.648 31.1441 30.7279 31.0679C30.7686 31.0292 30.8156 30.9971 30.8548 30.9569C30.9017 30.9089 30.9379 30.846 30.9592 30.7723C30.9876 30.6742 31.0306 30.578 31.0756 30.4863C31.0841 30.469 31.0916 30.4511 31.0981 30.4325C31.1463 30.2941 31.0284 30.1645 30.8839 30.1398C30.778 30.1217 30.6898 30.0485 30.6525 29.9478L30.597 29.7979C30.4902 29.5094 30.1675 29.346 29.9104 29.5149C29.8833 29.5327 29.857 29.5514 29.832 29.5709C29.7554 29.6429 29.6788 29.6429 29.6022 29.6429C29.4431 29.6429 29.403 29.4542 29.3876 29.2959C29.3731 29.1473 29.3536 28.9288 29.3341 28.6356C29.3341 28.4981 28.9494 27.6377 28.2132 26.0543C28.1441 25.9056 28.0962 25.7474 28.0704 25.5854C28.0452 25.4269 28.0075 25.1935 27.9574 24.8923C27.9106 24.6113 27.6386 24.397 27.3921 24.2542C27.2266 24.1584 27.1589 23.9992 27.0989 23.8175C27.0632 23.7093 27.0187 23.5708 26.9686 23.4019C26.9367 23.2942 26.8954 23.1889 26.8445 23.0887C26.3595 22.1335 26.1136 21.5345 26.0407 21.2609C25.9968 21.0547 25.953 20.8604 25.9091 20.6711C25.8471 20.404 25.9641 20.132 25.9641 19.8579C25.9641 19.7668 25.9334 19.6756 25.872 19.5571C25.7975 19.4133 25.6258 19.3522 25.4713 19.4006C25.3499 19.4386 25.2168 19.4088 25.1264 19.3193C24.9179 19.113 24.8085 18.9754 24.777 18.8866L24.4323 17.9872C23.8579 16.872 23.5515 16.2964 23.5515 16.1885C23.5515 16.0446 23.5132 15.9367 23.5132 15.7568C23.5132 15.4906 23.3648 15.2506 23.1401 15.1079C23.1105 15.0891 23.0835 15.0713 23.0589 15.0545C22.9061 14.9499 22.8068 14.7746 22.7256 14.6081C22.6438 14.4403 22.5362 14.1997 22.4027 13.8861C22.3425 13.7449 22.2351 13.4927 22.0434 13.147C21.9552 12.988 22.0264 12.7851 22.1973 12.7234C22.2997 12.6864 22.3725 12.5947 22.3853 12.4866L22.426 12.1423C22.4355 12.0615 22.411 11.9802 22.3582 11.9182C22.3128 11.8649 22.2498 11.8296 22.1806 11.8188L22.1538 11.8146C21.9687 11.7857 21.8354 11.6216 21.8454 11.4345C21.8772 10.8396 21.9049 10.3784 21.9049 10.0729C21.9049 9.10156 21.79 8.09427 21.5602 7.05102C21.4836 6.69128 21.4453 6.5114 21.407 6.5114C21.3029 6.5114 21.1988 7.25949 21.0826 8.72177C21.0171 9.54592 20.0973 9.74857 19.7603 8.99363C19.6071 8.66986 19.4923 8.45402 19.4923 8.31012C19.4923 8.10183 19.4157 7.89976 19.2702 7.75071C19.2458 7.72579 19.2234 7.70315 19.203 7.68277C19.1168 7.59664 19.0423 7.49944 18.9861 7.39133L18.2668 6.00776C17.6924 4.96451 17.386 4.38892 17.386 4.281C17.386 4.19793 17.4314 4.09355 17.5047 3.96786C17.5215 3.939 17.4879 3.90541 17.4596 3.92313Z" fill="#DCBF89"/>
</g>
</svg>
